<mxfile host="app.diagrams.net" agent="Mozilla/5.0 (Windows NT 10.0; Win64; x64) AppleWebKit/537.36 (KHTML, like Gecko) Chrome/134.0.0.0 Safari/537.36" version="26.1.0">
  <diagram name="페이지-1" id="Wu_BPyDQze9dxQ1UDcbO">
    <mxGraphModel dx="1815" dy="548" grid="1" gridSize="10" guides="1" tooltips="1" connect="1" arrows="1" fold="1" page="1" pageScale="1" pageWidth="827" pageHeight="1169" math="0" shadow="0">
      <root>
        <mxCell id="0" />
        <mxCell id="1" parent="0" />
        <mxCell id="8MCUrvWu9592fJXO9Xv8-18" style="edgeStyle=orthogonalEdgeStyle;rounded=0;orthogonalLoop=1;jettySize=auto;html=1;entryX=0;entryY=0.5;entryDx=0;entryDy=0;" edge="1" parent="1" source="8MCUrvWu9592fJXO9Xv8-1" target="8MCUrvWu9592fJXO9Xv8-2">
          <mxGeometry relative="1" as="geometry" />
        </mxCell>
        <mxCell id="8MCUrvWu9592fJXO9Xv8-1" value="" style="rounded=0;whiteSpace=wrap;html=1;" vertex="1" parent="1">
          <mxGeometry x="-70" y="160" width="40" height="40" as="geometry" />
        </mxCell>
        <mxCell id="8MCUrvWu9592fJXO9Xv8-19" style="edgeStyle=orthogonalEdgeStyle;rounded=0;orthogonalLoop=1;jettySize=auto;html=1;entryX=0;entryY=0.5;entryDx=0;entryDy=0;" edge="1" parent="1" source="8MCUrvWu9592fJXO9Xv8-2" target="8MCUrvWu9592fJXO9Xv8-3">
          <mxGeometry relative="1" as="geometry" />
        </mxCell>
        <mxCell id="8MCUrvWu9592fJXO9Xv8-60" style="edgeStyle=orthogonalEdgeStyle;rounded=0;orthogonalLoop=1;jettySize=auto;html=1;entryX=0.5;entryY=0;entryDx=0;entryDy=0;exitX=0.5;exitY=0;exitDx=0;exitDy=0;curved=1;strokeColor=#FF3333;" edge="1" parent="1" source="8MCUrvWu9592fJXO9Xv8-2" target="8MCUrvWu9592fJXO9Xv8-10">
          <mxGeometry relative="1" as="geometry">
            <mxPoint x="5" y="40" as="sourcePoint" />
            <mxPoint x="585" y="40" as="targetPoint" />
            <Array as="points">
              <mxPoint x="10" y="30" />
              <mxPoint x="590" y="30" />
            </Array>
          </mxGeometry>
        </mxCell>
        <mxCell id="8MCUrvWu9592fJXO9Xv8-2" value="" style="rounded=0;whiteSpace=wrap;html=1;" vertex="1" parent="1">
          <mxGeometry y="110" width="20" height="140" as="geometry" />
        </mxCell>
        <mxCell id="8MCUrvWu9592fJXO9Xv8-20" style="edgeStyle=orthogonalEdgeStyle;rounded=0;orthogonalLoop=1;jettySize=auto;html=1;entryX=0;entryY=0.5;entryDx=0;entryDy=0;" edge="1" parent="1" source="8MCUrvWu9592fJXO9Xv8-3" target="8MCUrvWu9592fJXO9Xv8-4">
          <mxGeometry relative="1" as="geometry" />
        </mxCell>
        <mxCell id="8MCUrvWu9592fJXO9Xv8-61" style="edgeStyle=orthogonalEdgeStyle;rounded=0;orthogonalLoop=1;jettySize=auto;html=1;exitX=0.5;exitY=0;exitDx=0;exitDy=0;entryX=0.5;entryY=0;entryDx=0;entryDy=0;curved=1;strokeColor=#FF3333;" edge="1" parent="1" source="8MCUrvWu9592fJXO9Xv8-3" target="8MCUrvWu9592fJXO9Xv8-11">
          <mxGeometry relative="1" as="geometry">
            <Array as="points">
              <mxPoint x="50" y="40" />
              <mxPoint x="550" y="40" />
            </Array>
          </mxGeometry>
        </mxCell>
        <mxCell id="8MCUrvWu9592fJXO9Xv8-3" value="" style="rounded=0;whiteSpace=wrap;html=1;" vertex="1" parent="1">
          <mxGeometry x="40" y="120" width="20" height="120" as="geometry" />
        </mxCell>
        <mxCell id="8MCUrvWu9592fJXO9Xv8-21" style="edgeStyle=orthogonalEdgeStyle;rounded=0;orthogonalLoop=1;jettySize=auto;html=1;entryX=0;entryY=0.5;entryDx=0;entryDy=0;" edge="1" parent="1" source="8MCUrvWu9592fJXO9Xv8-4" target="8MCUrvWu9592fJXO9Xv8-5">
          <mxGeometry relative="1" as="geometry" />
        </mxCell>
        <mxCell id="8MCUrvWu9592fJXO9Xv8-62" style="edgeStyle=orthogonalEdgeStyle;rounded=0;orthogonalLoop=1;jettySize=auto;html=1;exitX=0.5;exitY=0;exitDx=0;exitDy=0;entryX=0.5;entryY=0;entryDx=0;entryDy=0;curved=1;strokeColor=#FF3333;" edge="1" parent="1" source="8MCUrvWu9592fJXO9Xv8-4" target="8MCUrvWu9592fJXO9Xv8-12">
          <mxGeometry relative="1" as="geometry">
            <Array as="points">
              <mxPoint x="90" y="50" />
              <mxPoint x="510" y="50" />
            </Array>
          </mxGeometry>
        </mxCell>
        <mxCell id="8MCUrvWu9592fJXO9Xv8-4" value="" style="rounded=0;whiteSpace=wrap;html=1;" vertex="1" parent="1">
          <mxGeometry x="80" y="130" width="20" height="100" as="geometry" />
        </mxCell>
        <mxCell id="8MCUrvWu9592fJXO9Xv8-22" style="edgeStyle=orthogonalEdgeStyle;rounded=0;orthogonalLoop=1;jettySize=auto;html=1;entryX=0;entryY=0.5;entryDx=0;entryDy=0;" edge="1" parent="1" source="8MCUrvWu9592fJXO9Xv8-5" target="8MCUrvWu9592fJXO9Xv8-6">
          <mxGeometry relative="1" as="geometry" />
        </mxCell>
        <mxCell id="8MCUrvWu9592fJXO9Xv8-63" style="edgeStyle=orthogonalEdgeStyle;rounded=0;orthogonalLoop=1;jettySize=auto;html=1;entryX=0.5;entryY=0;entryDx=0;entryDy=0;curved=1;strokeColor=#FF3333;" edge="1" parent="1" source="8MCUrvWu9592fJXO9Xv8-5" target="8MCUrvWu9592fJXO9Xv8-13">
          <mxGeometry relative="1" as="geometry">
            <Array as="points">
              <mxPoint x="130" y="60" />
              <mxPoint x="470" y="60" />
            </Array>
          </mxGeometry>
        </mxCell>
        <mxCell id="8MCUrvWu9592fJXO9Xv8-5" value="" style="rounded=0;whiteSpace=wrap;html=1;" vertex="1" parent="1">
          <mxGeometry x="120" y="140" width="20" height="80" as="geometry" />
        </mxCell>
        <mxCell id="8MCUrvWu9592fJXO9Xv8-23" style="edgeStyle=orthogonalEdgeStyle;rounded=0;orthogonalLoop=1;jettySize=auto;html=1;entryX=0;entryY=0.5;entryDx=0;entryDy=0;" edge="1" parent="1" source="8MCUrvWu9592fJXO9Xv8-6" target="8MCUrvWu9592fJXO9Xv8-7">
          <mxGeometry relative="1" as="geometry" />
        </mxCell>
        <mxCell id="8MCUrvWu9592fJXO9Xv8-64" style="edgeStyle=orthogonalEdgeStyle;rounded=0;orthogonalLoop=1;jettySize=auto;html=1;entryX=0.5;entryY=0;entryDx=0;entryDy=0;curved=1;strokeColor=#FF3333;" edge="1" parent="1" source="8MCUrvWu9592fJXO9Xv8-6" target="8MCUrvWu9592fJXO9Xv8-14">
          <mxGeometry relative="1" as="geometry">
            <Array as="points">
              <mxPoint x="170" y="70" />
              <mxPoint x="425" y="70" />
            </Array>
          </mxGeometry>
        </mxCell>
        <mxCell id="8MCUrvWu9592fJXO9Xv8-6" value="" style="rounded=0;whiteSpace=wrap;html=1;" vertex="1" parent="1">
          <mxGeometry x="160" y="150" width="20" height="60" as="geometry" />
        </mxCell>
        <mxCell id="8MCUrvWu9592fJXO9Xv8-24" style="edgeStyle=orthogonalEdgeStyle;rounded=0;orthogonalLoop=1;jettySize=auto;html=1;entryX=0;entryY=0.5;entryDx=0;entryDy=0;" edge="1" parent="1" source="8MCUrvWu9592fJXO9Xv8-7" target="8MCUrvWu9592fJXO9Xv8-8">
          <mxGeometry relative="1" as="geometry" />
        </mxCell>
        <mxCell id="8MCUrvWu9592fJXO9Xv8-65" style="edgeStyle=orthogonalEdgeStyle;rounded=0;orthogonalLoop=1;jettySize=auto;html=1;exitX=0.5;exitY=0;exitDx=0;exitDy=0;entryX=0.5;entryY=0;entryDx=0;entryDy=0;curved=1;strokeColor=#FF3333;" edge="1" parent="1" source="8MCUrvWu9592fJXO9Xv8-7" target="8MCUrvWu9592fJXO9Xv8-15">
          <mxGeometry relative="1" as="geometry">
            <Array as="points">
              <mxPoint x="210" y="80" />
              <mxPoint x="380" y="80" />
            </Array>
          </mxGeometry>
        </mxCell>
        <mxCell id="8MCUrvWu9592fJXO9Xv8-7" value="" style="rounded=0;whiteSpace=wrap;html=1;" vertex="1" parent="1">
          <mxGeometry x="200" y="160" width="20" height="40" as="geometry" />
        </mxCell>
        <mxCell id="8MCUrvWu9592fJXO9Xv8-25" style="edgeStyle=orthogonalEdgeStyle;rounded=0;orthogonalLoop=1;jettySize=auto;html=1;entryX=0.5;entryY=1;entryDx=0;entryDy=0;" edge="1" parent="1" source="8MCUrvWu9592fJXO9Xv8-8" target="8MCUrvWu9592fJXO9Xv8-9">
          <mxGeometry relative="1" as="geometry" />
        </mxCell>
        <mxCell id="8MCUrvWu9592fJXO9Xv8-8" value="" style="rounded=0;whiteSpace=wrap;html=1;" vertex="1" parent="1">
          <mxGeometry x="240" y="170" width="20" height="20" as="geometry" />
        </mxCell>
        <mxCell id="8MCUrvWu9592fJXO9Xv8-26" style="edgeStyle=orthogonalEdgeStyle;rounded=0;orthogonalLoop=1;jettySize=auto;html=1;entryX=0;entryY=0.5;entryDx=0;entryDy=0;strokeColor=#00FF00;" edge="1" parent="1" source="8MCUrvWu9592fJXO9Xv8-9" target="8MCUrvWu9592fJXO9Xv8-16">
          <mxGeometry relative="1" as="geometry" />
        </mxCell>
        <mxCell id="8MCUrvWu9592fJXO9Xv8-9" value="" style="rounded=0;whiteSpace=wrap;html=1;rotation=90;" vertex="1" parent="1">
          <mxGeometry x="290" y="170" width="10" height="20" as="geometry" />
        </mxCell>
        <mxCell id="8MCUrvWu9592fJXO9Xv8-40" style="edgeStyle=orthogonalEdgeStyle;rounded=0;orthogonalLoop=1;jettySize=auto;html=1;entryX=0;entryY=0.5;entryDx=0;entryDy=0;strokeColor=#00FF00;" edge="1" parent="1" source="8MCUrvWu9592fJXO9Xv8-10" target="8MCUrvWu9592fJXO9Xv8-17">
          <mxGeometry relative="1" as="geometry" />
        </mxCell>
        <mxCell id="8MCUrvWu9592fJXO9Xv8-10" value="" style="rounded=0;whiteSpace=wrap;html=1;" vertex="1" parent="1">
          <mxGeometry x="580" y="110" width="20" height="140" as="geometry" />
        </mxCell>
        <mxCell id="8MCUrvWu9592fJXO9Xv8-35" style="edgeStyle=orthogonalEdgeStyle;rounded=0;orthogonalLoop=1;jettySize=auto;html=1;entryX=0;entryY=0.5;entryDx=0;entryDy=0;strokeColor=#00FF00;" edge="1" parent="1" source="8MCUrvWu9592fJXO9Xv8-11" target="8MCUrvWu9592fJXO9Xv8-10">
          <mxGeometry relative="1" as="geometry" />
        </mxCell>
        <mxCell id="8MCUrvWu9592fJXO9Xv8-11" value="" style="rounded=0;whiteSpace=wrap;html=1;" vertex="1" parent="1">
          <mxGeometry x="540" y="120" width="20" height="120" as="geometry" />
        </mxCell>
        <mxCell id="8MCUrvWu9592fJXO9Xv8-34" style="edgeStyle=orthogonalEdgeStyle;rounded=0;orthogonalLoop=1;jettySize=auto;html=1;entryX=0;entryY=0.5;entryDx=0;entryDy=0;strokeColor=#00FF00;" edge="1" parent="1" source="8MCUrvWu9592fJXO9Xv8-12" target="8MCUrvWu9592fJXO9Xv8-11">
          <mxGeometry relative="1" as="geometry" />
        </mxCell>
        <mxCell id="8MCUrvWu9592fJXO9Xv8-12" value="" style="rounded=0;whiteSpace=wrap;html=1;" vertex="1" parent="1">
          <mxGeometry x="500" y="130" width="20" height="100" as="geometry" />
        </mxCell>
        <mxCell id="8MCUrvWu9592fJXO9Xv8-13" value="" style="rounded=0;whiteSpace=wrap;html=1;" vertex="1" parent="1">
          <mxGeometry x="460" y="140" width="20" height="80" as="geometry" />
        </mxCell>
        <mxCell id="8MCUrvWu9592fJXO9Xv8-32" style="edgeStyle=orthogonalEdgeStyle;rounded=0;orthogonalLoop=1;jettySize=auto;html=1;entryX=0;entryY=0.5;entryDx=0;entryDy=0;strokeColor=#00FF00;" edge="1" parent="1" source="8MCUrvWu9592fJXO9Xv8-14" target="8MCUrvWu9592fJXO9Xv8-13">
          <mxGeometry relative="1" as="geometry" />
        </mxCell>
        <mxCell id="8MCUrvWu9592fJXO9Xv8-14" value="" style="rounded=0;whiteSpace=wrap;html=1;" vertex="1" parent="1">
          <mxGeometry x="414" y="150" width="21" height="60" as="geometry" />
        </mxCell>
        <mxCell id="8MCUrvWu9592fJXO9Xv8-31" style="edgeStyle=orthogonalEdgeStyle;rounded=0;orthogonalLoop=1;jettySize=auto;html=1;entryX=0;entryY=0.5;entryDx=0;entryDy=0;strokeColor=#00FF00;" edge="1" parent="1" source="8MCUrvWu9592fJXO9Xv8-15" target="8MCUrvWu9592fJXO9Xv8-14">
          <mxGeometry relative="1" as="geometry" />
        </mxCell>
        <mxCell id="8MCUrvWu9592fJXO9Xv8-15" value="" style="rounded=0;whiteSpace=wrap;html=1;" vertex="1" parent="1">
          <mxGeometry x="370" y="160" width="20" height="40" as="geometry" />
        </mxCell>
        <mxCell id="8MCUrvWu9592fJXO9Xv8-30" style="edgeStyle=orthogonalEdgeStyle;rounded=0;orthogonalLoop=1;jettySize=auto;html=1;entryX=0;entryY=0.5;entryDx=0;entryDy=0;strokeColor=#00FF00;" edge="1" parent="1" source="8MCUrvWu9592fJXO9Xv8-16" target="8MCUrvWu9592fJXO9Xv8-15">
          <mxGeometry relative="1" as="geometry" />
        </mxCell>
        <mxCell id="8MCUrvWu9592fJXO9Xv8-16" value="" style="rounded=0;whiteSpace=wrap;html=1;" vertex="1" parent="1">
          <mxGeometry x="330" y="170" width="20" height="20" as="geometry" />
        </mxCell>
        <mxCell id="8MCUrvWu9592fJXO9Xv8-17" value="" style="rounded=0;whiteSpace=wrap;html=1;" vertex="1" parent="1">
          <mxGeometry x="640" y="120" width="40" height="40" as="geometry" />
        </mxCell>
        <mxCell id="8MCUrvWu9592fJXO9Xv8-33" style="edgeStyle=orthogonalEdgeStyle;rounded=0;orthogonalLoop=1;jettySize=auto;html=1;entryX=-0.097;entryY=0.5;entryDx=0;entryDy=0;entryPerimeter=0;strokeColor=#00FF00;" edge="1" parent="1" source="8MCUrvWu9592fJXO9Xv8-13" target="8MCUrvWu9592fJXO9Xv8-12">
          <mxGeometry relative="1" as="geometry" />
        </mxCell>
        <mxCell id="8MCUrvWu9592fJXO9Xv8-41" value="&lt;div style=&quot;line-height: 50%;&quot;&gt;&lt;span style=&quot;font-size: 6px; background-color: transparent; color: light-dark(rgb(0, 0, 0), rgb(255, 255, 255)); line-height: 50%;&quot;&gt;Input&lt;/span&gt;&lt;br&gt;&lt;span style=&quot;font-size: 6px; background-color: transparent; color: light-dark(rgb(0, 0, 0), rgb(255, 255, 255)); line-height: 50%;&quot;&gt;Image&lt;/span&gt;&lt;br&gt;&lt;span style=&quot;font-size: 6px; background-color: transparent; color: light-dark(rgb(0, 0, 0), rgb(255, 255, 255)); line-height: 50%;&quot;&gt;3x256x256&lt;/span&gt;&lt;/div&gt;" style="text;html=1;align=center;verticalAlign=middle;resizable=0;points=[];autosize=1;strokeColor=none;fillColor=none;fontStyle=1" vertex="1" parent="1">
          <mxGeometry x="-75" y="160" width="50" height="30" as="geometry" />
        </mxCell>
        <mxCell id="8MCUrvWu9592fJXO9Xv8-42" value="&lt;div style=&quot;line-height: 50%;&quot;&gt;&lt;span style=&quot;font-size: 6px;&quot;&gt;128x128&lt;/span&gt;&lt;/div&gt;" style="text;html=1;align=center;verticalAlign=middle;resizable=0;points=[];autosize=1;strokeColor=none;fillColor=none;rotation=-90;fontStyle=1" vertex="1" parent="1">
          <mxGeometry x="-15" y="170" width="50" height="20" as="geometry" />
        </mxCell>
        <mxCell id="8MCUrvWu9592fJXO9Xv8-43" value="&lt;div style=&quot;line-height: 50%;&quot;&gt;&lt;span style=&quot;font-size: 6px;&quot;&gt;64x64&lt;/span&gt;&lt;/div&gt;&lt;div style=&quot;line-height: 50%;&quot;&gt;&lt;span style=&quot;font-size: 6px;&quot;&gt;&lt;br&gt;&lt;/span&gt;&lt;/div&gt;" style="text;html=1;align=center;verticalAlign=middle;resizable=0;points=[];autosize=1;strokeColor=none;fillColor=none;rotation=-90;fontStyle=1" vertex="1" parent="1">
          <mxGeometry x="35" y="165" width="40" height="30" as="geometry" />
        </mxCell>
        <mxCell id="8MCUrvWu9592fJXO9Xv8-44" value="&lt;div style=&quot;line-height: 50%;&quot;&gt;&lt;span style=&quot;font-size: 6px;&quot;&gt;32x32&lt;/span&gt;&lt;/div&gt;" style="text;html=1;align=center;verticalAlign=middle;resizable=0;points=[];autosize=1;strokeColor=none;fillColor=none;rotation=-90;fontStyle=1" vertex="1" parent="1">
          <mxGeometry x="70" y="170" width="40" height="20" as="geometry" />
        </mxCell>
        <mxCell id="8MCUrvWu9592fJXO9Xv8-45" value="&lt;div style=&quot;line-height: 50%;&quot;&gt;&lt;span style=&quot;font-size: 6px;&quot;&gt;16x16&lt;/span&gt;&lt;/div&gt;" style="text;html=1;align=center;verticalAlign=middle;resizable=0;points=[];autosize=1;strokeColor=none;fillColor=none;rotation=-90;fontStyle=1" vertex="1" parent="1">
          <mxGeometry x="110" y="170" width="40" height="20" as="geometry" />
        </mxCell>
        <mxCell id="8MCUrvWu9592fJXO9Xv8-46" value="&lt;div style=&quot;line-height: 50%;&quot;&gt;&lt;span style=&quot;font-size: 6px;&quot;&gt;8x8&lt;/span&gt;&lt;/div&gt;" style="text;html=1;align=center;verticalAlign=middle;resizable=0;points=[];autosize=1;strokeColor=none;fillColor=none;rotation=-90;fontStyle=1" vertex="1" parent="1">
          <mxGeometry x="155" y="170" width="30" height="20" as="geometry" />
        </mxCell>
        <mxCell id="8MCUrvWu9592fJXO9Xv8-47" value="&lt;div style=&quot;line-height: 50%;&quot;&gt;&lt;span style=&quot;font-size: 6px;&quot;&gt;4x4&lt;/span&gt;&lt;/div&gt;" style="text;html=1;align=center;verticalAlign=middle;resizable=0;points=[];autosize=1;strokeColor=none;fillColor=none;rotation=-90;fontStyle=1" vertex="1" parent="1">
          <mxGeometry x="195" y="170" width="30" height="20" as="geometry" />
        </mxCell>
        <mxCell id="8MCUrvWu9592fJXO9Xv8-48" value="&lt;div style=&quot;line-height: 50%;&quot;&gt;&lt;span style=&quot;font-size: 6px;&quot;&gt;2x2&lt;/span&gt;&lt;/div&gt;" style="text;html=1;align=center;verticalAlign=middle;resizable=0;points=[];autosize=1;strokeColor=none;fillColor=none;rotation=-90;fontStyle=1" vertex="1" parent="1">
          <mxGeometry x="235" y="170" width="30" height="20" as="geometry" />
        </mxCell>
        <mxCell id="8MCUrvWu9592fJXO9Xv8-49" value="&lt;div style=&quot;line-height: 50%;&quot;&gt;&lt;span style=&quot;font-size: 6px;&quot;&gt;1x1&lt;/span&gt;&lt;/div&gt;" style="text;html=1;align=center;verticalAlign=middle;resizable=0;points=[];autosize=1;strokeColor=none;fillColor=none;rotation=0;fontStyle=1" vertex="1" parent="1">
          <mxGeometry x="280" y="170" width="30" height="20" as="geometry" />
        </mxCell>
        <mxCell id="8MCUrvWu9592fJXO9Xv8-50" value="&lt;div style=&quot;line-height: 50%;&quot;&gt;&lt;span style=&quot;font-size: 6px;&quot;&gt;2x2&lt;/span&gt;&lt;/div&gt;" style="text;html=1;align=center;verticalAlign=middle;resizable=0;points=[];autosize=1;strokeColor=none;fillColor=none;rotation=-90;fontStyle=1" vertex="1" parent="1">
          <mxGeometry x="325" y="170" width="30" height="20" as="geometry" />
        </mxCell>
        <mxCell id="8MCUrvWu9592fJXO9Xv8-51" value="&lt;div style=&quot;line-height: 50%;&quot;&gt;&lt;span style=&quot;font-size: 6px;&quot;&gt;4x4&lt;/span&gt;&lt;/div&gt;" style="text;html=1;align=center;verticalAlign=middle;resizable=0;points=[];autosize=1;strokeColor=none;fillColor=none;rotation=-90;fontStyle=1" vertex="1" parent="1">
          <mxGeometry x="365" y="170" width="30" height="20" as="geometry" />
        </mxCell>
        <mxCell id="8MCUrvWu9592fJXO9Xv8-52" value="&lt;div style=&quot;line-height: 50%;&quot;&gt;&lt;span style=&quot;font-size: 6px;&quot;&gt;8x8&lt;/span&gt;&lt;/div&gt;" style="text;html=1;align=center;verticalAlign=middle;resizable=0;points=[];autosize=1;strokeColor=none;fillColor=none;rotation=-90;fontStyle=1" vertex="1" parent="1">
          <mxGeometry x="409.5" y="170" width="30" height="20" as="geometry" />
        </mxCell>
        <mxCell id="8MCUrvWu9592fJXO9Xv8-53" value="&lt;div style=&quot;line-height: 50%;&quot;&gt;&lt;span style=&quot;font-size: 6px;&quot;&gt;16x16&lt;/span&gt;&lt;/div&gt;" style="text;html=1;align=center;verticalAlign=middle;resizable=0;points=[];autosize=1;strokeColor=none;fillColor=none;rotation=-90;fontStyle=1" vertex="1" parent="1">
          <mxGeometry x="450" y="170" width="40" height="20" as="geometry" />
        </mxCell>
        <mxCell id="8MCUrvWu9592fJXO9Xv8-54" value="&lt;div style=&quot;line-height: 50%;&quot;&gt;&lt;span style=&quot;font-size: 6px;&quot;&gt;32x32&lt;/span&gt;&lt;/div&gt;" style="text;html=1;align=center;verticalAlign=middle;resizable=0;points=[];autosize=1;strokeColor=none;fillColor=none;rotation=-90;fontStyle=1" vertex="1" parent="1">
          <mxGeometry x="490" y="170" width="40" height="20" as="geometry" />
        </mxCell>
        <mxCell id="8MCUrvWu9592fJXO9Xv8-55" value="&lt;div style=&quot;line-height: 50%;&quot;&gt;&lt;span style=&quot;font-size: 6px;&quot;&gt;64x64&lt;/span&gt;&lt;/div&gt;&lt;div style=&quot;line-height: 50%;&quot;&gt;&lt;span style=&quot;font-size: 6px;&quot;&gt;&lt;br&gt;&lt;/span&gt;&lt;/div&gt;" style="text;html=1;align=center;verticalAlign=middle;resizable=0;points=[];autosize=1;strokeColor=none;fillColor=none;rotation=-90;fontStyle=1" vertex="1" parent="1">
          <mxGeometry x="530" y="165" width="40" height="30" as="geometry" />
        </mxCell>
        <mxCell id="8MCUrvWu9592fJXO9Xv8-56" value="&lt;div style=&quot;line-height: 50%;&quot;&gt;&lt;span style=&quot;font-size: 6px;&quot;&gt;128x128&lt;/span&gt;&lt;/div&gt;" style="text;html=1;align=center;verticalAlign=middle;resizable=0;points=[];autosize=1;strokeColor=none;fillColor=none;rotation=-90;fontStyle=1" vertex="1" parent="1">
          <mxGeometry x="565" y="170" width="50" height="20" as="geometry" />
        </mxCell>
        <mxCell id="8MCUrvWu9592fJXO9Xv8-57" value="&lt;div style=&quot;line-height: 50%;&quot;&gt;&lt;span style=&quot;font-size: 6px;&quot;&gt;Generated&lt;br&gt;(Nasal)&lt;br&gt;Image&lt;br&gt;3x256x256&lt;/span&gt;&lt;/div&gt;" style="text;html=1;align=center;verticalAlign=middle;resizable=0;points=[];autosize=1;strokeColor=none;fillColor=none;fontStyle=1" vertex="1" parent="1">
          <mxGeometry x="635" y="115" width="50" height="50" as="geometry" />
        </mxCell>
        <mxCell id="8MCUrvWu9592fJXO9Xv8-67" style="edgeStyle=orthogonalEdgeStyle;rounded=0;orthogonalLoop=1;jettySize=auto;html=1;entryX=1.031;entryY=0.544;entryDx=0;entryDy=0;entryPerimeter=0;curved=1;strokeColor=#FF3333;" edge="1" parent="1">
          <mxGeometry relative="1" as="geometry">
            <mxPoint x="249.56" y="170" as="sourcePoint" />
            <mxPoint x="340.4400000000001" y="169.07000000000005" as="targetPoint" />
            <Array as="points">
              <mxPoint x="250" y="90" />
              <mxPoint x="340" y="90" />
            </Array>
          </mxGeometry>
        </mxCell>
        <mxCell id="8MCUrvWu9592fJXO9Xv8-68" value="&lt;font style=&quot;font-size: 8px;&quot;&gt;64&lt;/font&gt;" style="text;html=1;align=center;verticalAlign=middle;resizable=0;points=[];autosize=1;strokeColor=none;fillColor=none;" vertex="1" parent="1">
          <mxGeometry x="-5" y="240" width="30" height="30" as="geometry" />
        </mxCell>
        <mxCell id="8MCUrvWu9592fJXO9Xv8-69" value="&lt;font style=&quot;font-size: 8px;&quot;&gt;128&lt;/font&gt;" style="text;html=1;align=center;verticalAlign=middle;resizable=0;points=[];autosize=1;strokeColor=none;fillColor=none;" vertex="1" parent="1">
          <mxGeometry x="30" y="230" width="40" height="30" as="geometry" />
        </mxCell>
        <mxCell id="8MCUrvWu9592fJXO9Xv8-70" value="&lt;font style=&quot;font-size: 8px;&quot;&gt;256&lt;/font&gt;" style="text;html=1;align=center;verticalAlign=middle;resizable=0;points=[];autosize=1;strokeColor=none;fillColor=none;" vertex="1" parent="1">
          <mxGeometry x="70" y="220" width="40" height="30" as="geometry" />
        </mxCell>
        <mxCell id="8MCUrvWu9592fJXO9Xv8-71" value="&lt;font style=&quot;font-size: 8px;&quot;&gt;512&lt;/font&gt;" style="text;html=1;align=center;verticalAlign=middle;resizable=0;points=[];autosize=1;strokeColor=none;fillColor=none;" vertex="1" parent="1">
          <mxGeometry x="110" y="210" width="40" height="30" as="geometry" />
        </mxCell>
        <mxCell id="8MCUrvWu9592fJXO9Xv8-72" value="&lt;font style=&quot;font-size: 8px;&quot;&gt;512&lt;/font&gt;" style="text;html=1;align=center;verticalAlign=middle;resizable=0;points=[];autosize=1;strokeColor=none;fillColor=none;" vertex="1" parent="1">
          <mxGeometry x="150" y="200" width="40" height="30" as="geometry" />
        </mxCell>
        <mxCell id="8MCUrvWu9592fJXO9Xv8-73" value="&lt;font style=&quot;font-size: 8px;&quot;&gt;512&lt;/font&gt;" style="text;html=1;align=center;verticalAlign=middle;resizable=0;points=[];autosize=1;strokeColor=none;fillColor=none;" vertex="1" parent="1">
          <mxGeometry x="190" y="190" width="40" height="30" as="geometry" />
        </mxCell>
        <mxCell id="8MCUrvWu9592fJXO9Xv8-74" value="&lt;font style=&quot;font-size: 8px;&quot;&gt;512&lt;/font&gt;" style="text;html=1;align=center;verticalAlign=middle;resizable=0;points=[];autosize=1;strokeColor=none;fillColor=none;" vertex="1" parent="1">
          <mxGeometry x="230" y="180" width="40" height="30" as="geometry" />
        </mxCell>
        <mxCell id="8MCUrvWu9592fJXO9Xv8-75" value="&lt;font style=&quot;font-size: 8px;&quot;&gt;512&lt;/font&gt;" style="text;html=1;align=center;verticalAlign=middle;resizable=0;points=[];autosize=1;strokeColor=none;fillColor=none;" vertex="1" parent="1">
          <mxGeometry x="275" y="180" width="40" height="30" as="geometry" />
        </mxCell>
        <mxCell id="8MCUrvWu9592fJXO9Xv8-76" value="&lt;font style=&quot;font-size: 8px;&quot;&gt;512&lt;/font&gt;" style="text;html=1;align=center;verticalAlign=middle;resizable=0;points=[];autosize=1;strokeColor=none;fillColor=none;" vertex="1" parent="1">
          <mxGeometry x="320" y="180" width="40" height="30" as="geometry" />
        </mxCell>
        <mxCell id="8MCUrvWu9592fJXO9Xv8-77" value="&lt;font style=&quot;font-size: 8px;&quot;&gt;512&lt;/font&gt;" style="text;html=1;align=center;verticalAlign=middle;resizable=0;points=[];autosize=1;strokeColor=none;fillColor=none;" vertex="1" parent="1">
          <mxGeometry x="360" y="190" width="40" height="30" as="geometry" />
        </mxCell>
        <mxCell id="8MCUrvWu9592fJXO9Xv8-78" value="&lt;span style=&quot;font-size: 8px;&quot;&gt;512&lt;/span&gt;" style="text;html=1;align=center;verticalAlign=middle;resizable=0;points=[];autosize=1;strokeColor=none;fillColor=none;" vertex="1" parent="1">
          <mxGeometry x="404.5" y="200" width="40" height="30" as="geometry" />
        </mxCell>
        <mxCell id="8MCUrvWu9592fJXO9Xv8-79" value="&lt;font style=&quot;font-size: 8px;&quot;&gt;512&lt;/font&gt;" style="text;html=1;align=center;verticalAlign=middle;resizable=0;points=[];autosize=1;strokeColor=none;fillColor=none;" vertex="1" parent="1">
          <mxGeometry x="450" y="210" width="40" height="30" as="geometry" />
        </mxCell>
        <mxCell id="8MCUrvWu9592fJXO9Xv8-80" value="&lt;font style=&quot;font-size: 8px;&quot;&gt;256&lt;/font&gt;" style="text;html=1;align=center;verticalAlign=middle;resizable=0;points=[];autosize=1;strokeColor=none;fillColor=none;" vertex="1" parent="1">
          <mxGeometry x="490" y="220" width="40" height="30" as="geometry" />
        </mxCell>
        <mxCell id="8MCUrvWu9592fJXO9Xv8-81" value="&lt;font style=&quot;font-size: 8px;&quot;&gt;128&lt;/font&gt;" style="text;html=1;align=center;verticalAlign=middle;resizable=0;points=[];autosize=1;strokeColor=none;fillColor=none;" vertex="1" parent="1">
          <mxGeometry x="530" y="230" width="40" height="30" as="geometry" />
        </mxCell>
        <mxCell id="8MCUrvWu9592fJXO9Xv8-82" value="&lt;font style=&quot;font-size: 8px;&quot;&gt;64&lt;/font&gt;" style="text;html=1;align=center;verticalAlign=middle;resizable=0;points=[];autosize=1;strokeColor=none;fillColor=none;" vertex="1" parent="1">
          <mxGeometry x="570" y="240" width="30" height="30" as="geometry" />
        </mxCell>
        <mxCell id="8MCUrvWu9592fJXO9Xv8-83" value="" style="rounded=0;whiteSpace=wrap;html=1;" vertex="1" parent="1">
          <mxGeometry x="-105" y="350" width="40" height="40" as="geometry" />
        </mxCell>
        <mxCell id="8MCUrvWu9592fJXO9Xv8-84" value="" style="rounded=0;whiteSpace=wrap;html=1;" vertex="1" parent="1">
          <mxGeometry x="-65" y="350" width="40" height="40" as="geometry" />
        </mxCell>
        <mxCell id="8MCUrvWu9592fJXO9Xv8-85" value="&lt;div style=&quot;line-height: 50%;&quot;&gt;&lt;span style=&quot;font-size: 6px; background-color: transparent; color: light-dark(rgb(0, 0, 0), rgb(255, 255, 255)); line-height: 50%;&quot;&gt;Input&lt;/span&gt;&lt;br&gt;&lt;span style=&quot;font-size: 6px; background-color: transparent; color: light-dark(rgb(0, 0, 0), rgb(255, 255, 255)); line-height: 50%;&quot;&gt;Image&lt;/span&gt;&lt;br&gt;&lt;span style=&quot;font-size: 6px; background-color: transparent; color: light-dark(rgb(0, 0, 0), rgb(255, 255, 255)); line-height: 50%;&quot;&gt;3x256x256&lt;/span&gt;&lt;/div&gt;" style="text;html=1;align=center;verticalAlign=middle;resizable=0;points=[];autosize=1;strokeColor=none;fillColor=none;fontStyle=1" vertex="1" parent="1">
          <mxGeometry x="-110" y="350" width="50" height="30" as="geometry" />
        </mxCell>
        <mxCell id="8MCUrvWu9592fJXO9Xv8-86" value="&lt;div style=&quot;line-height: 50%;&quot;&gt;&lt;span style=&quot;font-size: 6px;&quot;&gt;Generated&amp;nbsp;&lt;br&gt;or&lt;br&gt;Real Image&lt;br&gt;3x256x256&lt;/span&gt;&lt;/div&gt;" style="text;html=1;align=center;verticalAlign=middle;resizable=0;points=[];autosize=1;strokeColor=none;fillColor=none;fontStyle=1" vertex="1" parent="1">
          <mxGeometry x="-70" y="340" width="50" height="50" as="geometry" />
        </mxCell>
        <mxCell id="8MCUrvWu9592fJXO9Xv8-88" value="" style="rounded=0;whiteSpace=wrap;html=1;" vertex="1" parent="1">
          <mxGeometry y="300" width="20" height="140" as="geometry" />
        </mxCell>
        <mxCell id="8MCUrvWu9592fJXO9Xv8-89" value="" style="rounded=0;whiteSpace=wrap;html=1;" vertex="1" parent="1">
          <mxGeometry x="40" y="310" width="20" height="120" as="geometry" />
        </mxCell>
        <mxCell id="8MCUrvWu9592fJXO9Xv8-91" value="" style="rounded=0;whiteSpace=wrap;html=1;" vertex="1" parent="1">
          <mxGeometry x="80" y="320" width="20" height="100" as="geometry" />
        </mxCell>
        <mxCell id="8MCUrvWu9592fJXO9Xv8-92" value="" style="rounded=0;whiteSpace=wrap;html=1;" vertex="1" parent="1">
          <mxGeometry x="120" y="330" width="20" height="80" as="geometry" />
        </mxCell>
        <mxCell id="8MCUrvWu9592fJXO9Xv8-93" value="" style="rounded=0;whiteSpace=wrap;html=1;" vertex="1" parent="1">
          <mxGeometry x="160" y="330" width="20" height="80" as="geometry" />
        </mxCell>
        <mxCell id="8MCUrvWu9592fJXO9Xv8-94" value="" style="rounded=0;whiteSpace=wrap;html=1;" vertex="1" parent="1">
          <mxGeometry x="200" y="350" width="40" height="40" as="geometry" />
        </mxCell>
        <mxCell id="8MCUrvWu9592fJXO9Xv8-95" value="&lt;div style=&quot;line-height: 50%;&quot;&gt;&lt;span style=&quot;font-size: 6px;&quot;&gt;128x128&lt;/span&gt;&lt;/div&gt;" style="text;html=1;align=center;verticalAlign=middle;resizable=0;points=[];autosize=1;strokeColor=none;fillColor=none;rotation=-90;fontStyle=1" vertex="1" parent="1">
          <mxGeometry x="-15" y="360" width="50" height="20" as="geometry" />
        </mxCell>
        <mxCell id="8MCUrvWu9592fJXO9Xv8-96" value="&lt;font style=&quot;font-size: 8px;&quot;&gt;64&lt;/font&gt;" style="text;html=1;align=center;verticalAlign=middle;resizable=0;points=[];autosize=1;strokeColor=none;fillColor=none;" vertex="1" parent="1">
          <mxGeometry x="-5" y="430" width="30" height="30" as="geometry" />
        </mxCell>
        <mxCell id="8MCUrvWu9592fJXO9Xv8-97" value="&lt;div style=&quot;line-height: 50%;&quot;&gt;&lt;span style=&quot;font-size: 6px;&quot;&gt;64x64&lt;/span&gt;&lt;/div&gt;&lt;div style=&quot;line-height: 50%;&quot;&gt;&lt;span style=&quot;font-size: 6px;&quot;&gt;&lt;br&gt;&lt;/span&gt;&lt;/div&gt;" style="text;html=1;align=center;verticalAlign=middle;resizable=0;points=[];autosize=1;strokeColor=none;fillColor=none;rotation=-90;fontStyle=1" vertex="1" parent="1">
          <mxGeometry x="35" y="355" width="40" height="30" as="geometry" />
        </mxCell>
        <mxCell id="8MCUrvWu9592fJXO9Xv8-98" value="&lt;font style=&quot;font-size: 8px;&quot;&gt;128&lt;/font&gt;" style="text;html=1;align=center;verticalAlign=middle;resizable=0;points=[];autosize=1;strokeColor=none;fillColor=none;" vertex="1" parent="1">
          <mxGeometry x="30" y="420" width="40" height="30" as="geometry" />
        </mxCell>
        <mxCell id="8MCUrvWu9592fJXO9Xv8-99" value="&lt;div style=&quot;line-height: 50%;&quot;&gt;&lt;span style=&quot;font-size: 6px;&quot;&gt;32x32&lt;/span&gt;&lt;/div&gt;" style="text;html=1;align=center;verticalAlign=middle;resizable=0;points=[];autosize=1;strokeColor=none;fillColor=none;rotation=-90;fontStyle=1" vertex="1" parent="1">
          <mxGeometry x="70" y="360" width="40" height="20" as="geometry" />
        </mxCell>
        <mxCell id="8MCUrvWu9592fJXO9Xv8-100" value="&lt;font style=&quot;font-size: 8px;&quot;&gt;256&lt;/font&gt;" style="text;html=1;align=center;verticalAlign=middle;resizable=0;points=[];autosize=1;strokeColor=none;fillColor=none;" vertex="1" parent="1">
          <mxGeometry x="70" y="410" width="40" height="30" as="geometry" />
        </mxCell>
        <mxCell id="8MCUrvWu9592fJXO9Xv8-101" value="&lt;font style=&quot;font-size: 8px;&quot;&gt;512&lt;/font&gt;" style="text;html=1;align=center;verticalAlign=middle;resizable=0;points=[];autosize=1;strokeColor=none;fillColor=none;" vertex="1" parent="1">
          <mxGeometry x="110" y="400" width="40" height="30" as="geometry" />
        </mxCell>
        <mxCell id="8MCUrvWu9592fJXO9Xv8-102" value="&lt;div style=&quot;line-height: 50%;&quot;&gt;&lt;span style=&quot;font-size: 6px;&quot;&gt;16x16&lt;/span&gt;&lt;/div&gt;" style="text;html=1;align=center;verticalAlign=middle;resizable=0;points=[];autosize=1;strokeColor=none;fillColor=none;rotation=-90;fontStyle=1" vertex="1" parent="1">
          <mxGeometry x="110" y="360" width="40" height="20" as="geometry" />
        </mxCell>
        <mxCell id="8MCUrvWu9592fJXO9Xv8-117" style="edgeStyle=orthogonalEdgeStyle;rounded=0;orthogonalLoop=1;jettySize=auto;html=1;entryX=0;entryY=0.5;entryDx=0;entryDy=0;" edge="1" parent="1" source="8MCUrvWu9592fJXO9Xv8-103" target="8MCUrvWu9592fJXO9Xv8-94">
          <mxGeometry relative="1" as="geometry" />
        </mxCell>
        <mxCell id="8MCUrvWu9592fJXO9Xv8-103" value="&lt;div style=&quot;line-height: 50%;&quot;&gt;&lt;span style=&quot;font-size: 6px;&quot;&gt;16x16&lt;/span&gt;&lt;/div&gt;" style="text;html=1;align=center;verticalAlign=middle;resizable=0;points=[];autosize=1;strokeColor=none;fillColor=none;rotation=-90;fontStyle=1" vertex="1" parent="1">
          <mxGeometry x="150" y="360" width="40" height="20" as="geometry" />
        </mxCell>
        <mxCell id="8MCUrvWu9592fJXO9Xv8-104" value="&lt;font style=&quot;font-size: 8px;&quot;&gt;1&lt;/font&gt;" style="text;html=1;align=center;verticalAlign=middle;resizable=0;points=[];autosize=1;strokeColor=none;fillColor=none;" vertex="1" parent="1">
          <mxGeometry x="155" y="400" width="30" height="30" as="geometry" />
        </mxCell>
        <mxCell id="8MCUrvWu9592fJXO9Xv8-105" value="&lt;div style=&quot;line-height: 50%;&quot;&gt;&lt;span style=&quot;font-size: 6px;&quot;&gt;Probability&lt;br&gt;Map&lt;br&gt;Real vs. Fake&lt;/span&gt;&lt;/div&gt;" style="text;html=1;align=center;verticalAlign=middle;resizable=0;points=[];autosize=1;strokeColor=none;fillColor=none;fontStyle=1" vertex="1" parent="1">
          <mxGeometry x="190" y="345" width="60" height="40" as="geometry" />
        </mxCell>
        <mxCell id="8MCUrvWu9592fJXO9Xv8-106" value="&lt;div style=&quot;line-height: 50%;&quot;&gt;&lt;span style=&quot;font-size: 6px;&quot;&gt;Concatenated Image&lt;br&gt;across channels&lt;/span&gt;&lt;/div&gt;" style="text;html=1;align=center;verticalAlign=middle;resizable=0;points=[];autosize=1;strokeColor=none;fillColor=none;fontStyle=1" vertex="1" parent="1">
          <mxGeometry x="-105" y="385" width="80" height="30" as="geometry" />
        </mxCell>
        <mxCell id="8MCUrvWu9592fJXO9Xv8-109" style="edgeStyle=orthogonalEdgeStyle;rounded=0;orthogonalLoop=1;jettySize=auto;html=1;entryX=0.5;entryY=0;entryDx=0;entryDy=0;entryPerimeter=0;" edge="1" parent="1" source="8MCUrvWu9592fJXO9Xv8-84" target="8MCUrvWu9592fJXO9Xv8-95">
          <mxGeometry relative="1" as="geometry" />
        </mxCell>
        <mxCell id="8MCUrvWu9592fJXO9Xv8-110" style="edgeStyle=orthogonalEdgeStyle;rounded=0;orthogonalLoop=1;jettySize=auto;html=1;entryX=0.496;entryY=-0.014;entryDx=0;entryDy=0;entryPerimeter=0;" edge="1" parent="1" source="8MCUrvWu9592fJXO9Xv8-88" target="8MCUrvWu9592fJXO9Xv8-97">
          <mxGeometry relative="1" as="geometry" />
        </mxCell>
        <mxCell id="8MCUrvWu9592fJXO9Xv8-114" style="edgeStyle=orthogonalEdgeStyle;rounded=0;orthogonalLoop=1;jettySize=auto;html=1;entryX=0.496;entryY=-0.04;entryDx=0;entryDy=0;entryPerimeter=0;" edge="1" parent="1" source="8MCUrvWu9592fJXO9Xv8-99" target="8MCUrvWu9592fJXO9Xv8-102">
          <mxGeometry relative="1" as="geometry" />
        </mxCell>
        <mxCell id="8MCUrvWu9592fJXO9Xv8-115" style="edgeStyle=orthogonalEdgeStyle;rounded=0;orthogonalLoop=1;jettySize=auto;html=1;entryX=0.5;entryY=0;entryDx=0;entryDy=0;entryPerimeter=0;" edge="1" parent="1" source="8MCUrvWu9592fJXO9Xv8-102" target="8MCUrvWu9592fJXO9Xv8-103">
          <mxGeometry relative="1" as="geometry" />
        </mxCell>
        <mxCell id="8MCUrvWu9592fJXO9Xv8-119" style="edgeStyle=orthogonalEdgeStyle;rounded=0;orthogonalLoop=1;jettySize=auto;html=1;entryX=0.501;entryY=-0.05;entryDx=0;entryDy=0;entryPerimeter=0;exitX=1;exitY=0.5;exitDx=0;exitDy=0;" edge="1" parent="1" source="8MCUrvWu9592fJXO9Xv8-89" target="8MCUrvWu9592fJXO9Xv8-99">
          <mxGeometry relative="1" as="geometry">
            <mxPoint x="30" y="380" as="sourcePoint" />
            <mxPoint x="50" y="380" as="targetPoint" />
          </mxGeometry>
        </mxCell>
        <mxCell id="8MCUrvWu9592fJXO9Xv8-120" value="&lt;div style=&quot;line-height: 50%;&quot;&gt;&lt;font&gt;PatchGAN Discriminator&lt;/font&gt;&lt;br&gt;&lt;/div&gt;" style="text;html=1;align=center;verticalAlign=middle;resizable=0;points=[];autosize=1;strokeColor=none;fillColor=none;fontStyle=1" vertex="1" parent="1">
          <mxGeometry x="25" y="460" width="150" height="20" as="geometry" />
        </mxCell>
        <mxCell id="8MCUrvWu9592fJXO9Xv8-121" value="&lt;div style=&quot;line-height: 50%;&quot;&gt;&lt;font&gt;U-Net Generator&lt;br&gt;&lt;/font&gt;&lt;br&gt;Nasal &amp;amp;Temporal Combined&lt;/div&gt;" style="text;html=1;align=center;verticalAlign=middle;resizable=0;points=[];autosize=1;strokeColor=none;fillColor=none;fontStyle=1" vertex="1" parent="1">
          <mxGeometry x="210" y="220" width="170" height="30" as="geometry" />
        </mxCell>
        <mxCell id="8MCUrvWu9592fJXO9Xv8-122" value="" style="rounded=0;whiteSpace=wrap;html=1;" vertex="1" parent="1">
          <mxGeometry x="400" y="280" width="200" height="100" as="geometry" />
        </mxCell>
        <mxCell id="8MCUrvWu9592fJXO9Xv8-123" value="&lt;font style=&quot;font-size: 10px;&quot;&gt;&lt;u style=&quot;&quot;&gt;&lt;b style=&quot;&quot;&gt;Legend&lt;/b&gt;&lt;/u&gt;&lt;br&gt;&lt;/font&gt;&lt;div&gt;&lt;font style=&quot;font-size: 10px;&quot;&gt;&lt;br&gt;Skip Connection&lt;br&gt;4x4 Conv., Stride 2&lt;br&gt;4x4 Conv. Transposed, Stride 2&lt;/font&gt;&lt;/div&gt;" style="text;html=1;align=left;verticalAlign=middle;resizable=0;points=[];autosize=1;strokeColor=none;fillColor=none;" vertex="1" parent="1">
          <mxGeometry x="435" y="280" width="160" height="90" as="geometry" />
        </mxCell>
        <mxCell id="8MCUrvWu9592fJXO9Xv8-125" value="" style="endArrow=classic;html=1;rounded=0;strokeColor=#FF3333;" edge="1" parent="1">
          <mxGeometry width="50" height="50" relative="1" as="geometry">
            <mxPoint x="414" y="324.8" as="sourcePoint" />
            <mxPoint x="434" y="324.8" as="targetPoint" />
          </mxGeometry>
        </mxCell>
        <mxCell id="8MCUrvWu9592fJXO9Xv8-126" value="" style="endArrow=classic;html=1;rounded=0;" edge="1" parent="1">
          <mxGeometry width="50" height="50" relative="1" as="geometry">
            <mxPoint x="414" y="340" as="sourcePoint" />
            <mxPoint x="434" y="340" as="targetPoint" />
          </mxGeometry>
        </mxCell>
        <mxCell id="8MCUrvWu9592fJXO9Xv8-128" value="" style="endArrow=classic;html=1;rounded=0;strokeColor=#00FF00;" edge="1" parent="1">
          <mxGeometry width="50" height="50" relative="1" as="geometry">
            <mxPoint x="414.5" y="355" as="sourcePoint" />
            <mxPoint x="434.5" y="355" as="targetPoint" />
          </mxGeometry>
        </mxCell>
        <mxCell id="8MCUrvWu9592fJXO9Xv8-129" value="" style="rounded=0;whiteSpace=wrap;html=1;" vertex="1" parent="1">
          <mxGeometry x="590" y="120" width="20" height="140" as="geometry" />
        </mxCell>
        <mxCell id="8MCUrvWu9592fJXO9Xv8-130" value="&lt;font style=&quot;font-size: 8px;&quot;&gt;64&lt;/font&gt;" style="text;html=1;align=center;verticalAlign=middle;resizable=0;points=[];autosize=1;strokeColor=none;fillColor=none;" vertex="1" parent="1">
          <mxGeometry x="585" y="250" width="30" height="30" as="geometry" />
        </mxCell>
        <mxCell id="8MCUrvWu9592fJXO9Xv8-132" style="edgeStyle=orthogonalEdgeStyle;rounded=0;orthogonalLoop=1;jettySize=auto;html=1;entryX=0.5;entryY=0;entryDx=0;entryDy=0;curved=1;strokeColor=#FF3333;" edge="1" parent="1" source="8MCUrvWu9592fJXO9Xv8-2">
          <mxGeometry relative="1" as="geometry">
            <mxPoint x="20" y="120" as="sourcePoint" />
            <mxPoint x="600" y="120" as="targetPoint" />
            <Array as="points">
              <mxPoint x="20" y="30" />
              <mxPoint x="600" y="30" />
            </Array>
          </mxGeometry>
        </mxCell>
        <mxCell id="8MCUrvWu9592fJXO9Xv8-133" value="" style="rounded=0;whiteSpace=wrap;html=1;" vertex="1" parent="1">
          <mxGeometry x="640" y="200" width="40" height="40" as="geometry" />
        </mxCell>
        <mxCell id="8MCUrvWu9592fJXO9Xv8-134" style="edgeStyle=orthogonalEdgeStyle;rounded=0;orthogonalLoop=1;jettySize=auto;html=1;entryX=0;entryY=0.5;entryDx=0;entryDy=0;strokeColor=#00FF00;exitX=1.033;exitY=0.431;exitDx=0;exitDy=0;exitPerimeter=0;" edge="1" parent="1" source="8MCUrvWu9592fJXO9Xv8-129" target="8MCUrvWu9592fJXO9Xv8-133">
          <mxGeometry relative="1" as="geometry">
            <mxPoint x="610" y="190" as="sourcePoint" />
            <mxPoint x="650" y="150" as="targetPoint" />
            <Array as="points">
              <mxPoint x="620" y="180" />
              <mxPoint x="620" y="220" />
              <mxPoint x="640" y="220" />
            </Array>
          </mxGeometry>
        </mxCell>
        <mxCell id="8MCUrvWu9592fJXO9Xv8-135" value="&lt;div style=&quot;line-height: 50%;&quot;&gt;&lt;span style=&quot;font-size: 6px;&quot;&gt;Generated&lt;br&gt;(Temporal)&lt;br&gt;Image&lt;br&gt;3x256x256&lt;/span&gt;&lt;/div&gt;" style="text;html=1;align=center;verticalAlign=middle;resizable=0;points=[];autosize=1;strokeColor=none;fillColor=none;fontStyle=1" vertex="1" parent="1">
          <mxGeometry x="635" y="195" width="50" height="50" as="geometry" />
        </mxCell>
        <mxCell id="8MCUrvWu9592fJXO9Xv8-136" value="&lt;div style=&quot;line-height: 50%;&quot;&gt;&lt;span style=&quot;font-size: 6px;&quot;&gt;128x128&lt;/span&gt;&lt;/div&gt;" style="text;html=1;align=center;verticalAlign=middle;resizable=0;points=[];autosize=1;strokeColor=none;fillColor=none;rotation=-90;fontStyle=1" vertex="1" parent="1">
          <mxGeometry x="575" y="170" width="50" height="20" as="geometry" />
        </mxCell>
      </root>
    </mxGraphModel>
  </diagram>
</mxfile>
